{
  "name": "Boss Warning",
  "description": "Compact three-layer Boss Warning loop built from lead, bass and one supporting pattern.",
  "tempo": 126,
  "sample_rate": 44100,
  "layers": [
    {
      "id": 1,
      "name": "Alarm Lead",
      "muted": false,
      "volume": 0.85,
      "soundFilePath": "rendered-sounds/lead_04.wav",
      "soundLabel": "lead_04.wav",
      "melodyPresetId": "boss_lead_alarm",
      "notes": [
        {
          "pitch": 75,
          "start": 0,
          "duration": 0.375,
          "velocity": 0.85
        },
        {
          "pitch": 74,
          "start": 0.5,
          "duration": 0.375,
          "velocity": 0.85
        },
        {
          "pitch": 75,
          "start": 1,
          "duration": 0.375,
          "velocity": 0.85
        },
        {
          "pitch": 70,
          "start": 1.5,
          "duration": 0.375,
          "velocity": 0.85
        },
        {
          "pitch": 75,
          "start": 2,
          "duration": 0.375,
          "velocity": 0.85
        },
        {
          "pitch": 74,
          "start": 2.5,
          "duration": 0.375,
          "velocity": 0.85
        },
        {
          "pitch": 77,
          "start": 3,
          "duration": 0.375,
          "velocity": 0.85
        },
        {
          "pitch": 70,
          "start": 3.5,
          "duration": 0.375,
          "velocity": 0.85
        }
      ]
    },
    {
      "id": 2,
      "name": "Bass Hits",
      "muted": false,
      "volume": 0.85,
      "soundFilePath": "rendered-sounds/bass_02.wav",
      "soundLabel": "bass_02.wav",
      "melodyPresetId": "boss_bass_hits",
      "notes": [
        {
          "pitch": 35,
          "start": 0,
          "duration": 0.5,
          "velocity": 0.85
        },
        {
          "pitch": 35,
          "start": 1.5,
          "duration": 0.25,
          "velocity": 0.85
        },
        {
          "pitch": 35,
          "start": 2,
          "duration": 0.5,
          "velocity": 0.85
        },
        {
          "pitch": 38,
          "start": 3.5,
          "duration": 0.25,
          "velocity": 0.85
        }
      ]
    },
    {
      "id": 3,
      "name": "Pulse Ticks",
      "muted": false,
      "volume": 0.85,
      "soundFilePath": "rendered-sounds/arcade_sfx_03.wav",
      "soundLabel": "arcade_sfx_03.wav",
      "melodyPresetId": "boss_pulse_ticks",
      "notes": [
        {
          "pitch": 58,
          "start": 0.25,
          "duration": 0.125,
          "velocity": 0.85
        },
        {
          "pitch": 58,
          "start": 0.75,
          "duration": 0.125,
          "velocity": 0.85
        },
        {
          "pitch": 58,
          "start": 1.25,
          "duration": 0.125,
          "velocity": 0.85
        },
        {
          "pitch": 58,
          "start": 1.75,
          "duration": 0.125,
          "velocity": 0.85
        },
        {
          "pitch": 61,
          "start": 2.25,
          "duration": 0.125,
          "velocity": 0.85
        },
        {
          "pitch": 61,
          "start": 2.75,
          "duration": 0.125,
          "velocity": 0.85
        },
        {
          "pitch": 61,
          "start": 3.25,
          "duration": 0.125,
          "velocity": 0.85
        },
        {
          "pitch": 61,
          "start": 3.75,
          "duration": 0.125,
          "velocity": 0.85
        }
      ]
    }
  ]
}
